<?xml version="1.0" encoding="UTF-8"?>
<svg id="Lag_1" xmlns="http://www.w3.org/2000/svg" viewBox="0 0 125.14 106.19">
  <defs>
    <style>
      .cls-1, .cls-2 {
        stroke: #000;
      }

      .cls-2 {
        fill: none;
      }
    </style>
  </defs>
  <path class="cls-2" d="M17.12,73.8v15l9-3.5-9-11.5ZM62.12,63.8c-2.84,5.83-11.1,18.8-21.5,24,7,6,20,32,43,0-8-3.5-20.3-17.2-21.5-24ZM106.62,89.22v-.42M97.12,85.8c0,1.2,6.5,2.5,9.5,3v-15c-3.17,3.5-9.5,10.8-9.5,12ZM62.12,63.8c-2.84,5.83-11.1,18.8-21.5,24,7,6,20,32,43,0-8-3.5-20.3-17.2-21.5-24ZM17.12,88.8l9-3.5-9-11.5v15ZM110.12,95.68c-.17.04-.34.08-.5.12"/>
  <path class="cls-1" d="M110.12,63.8v-25.5l6.5-6.5v-7.5l-6.5,6v-3l6.5-6v-7.5l-6.5,6.5v-3l6.5-6.5V2.3l-8,8.5-9.5-8.5v8.5l7,6.5v3l-7.5-6.5v7.5l7.5,6v2.96l-7.5-6.06v7.6l7.5,6v26c-26.5-41-41.5-29-44-15.5-8.8-28-36-1-45,15.5v-26l7-7v-7.91l-7,7.29v-2.88l7-7.5v-7l-7,8v-3.5l7-8.14V1.3l-9,10L6.12,1.3v8.5l7,7.5v3.53l-7-7.42v6.4l7,7.5v2.69l-7-7.42v8.24l7,7v26c-17.5-2-21.5,47.5,19,27.5,23.5,20.5,39.5,17.5,60.5,1,6,2.8,14.33,3.42,17.5,3.38,28.26-7.21,7.95-35.36,0-31.88ZM13.12,88.8c-13-.5-13.5-25,0-17.5v17.5ZM17.12,88.8v-15l9,11.5-9,3.5ZM19.12,64.8c25-44,67.5-8.5,17,16-2.5-4-12.2-14.8-17-16ZM40.62,87.8c10.4-5.2,18.66-18.17,21.5-24,1.2,6.8,13.5,20.5,21.5,24-23,32-36,6-43,0ZM88.62,81.3c-48.5-22.5-13-63,16-15.5-5,3-13,11.5-16,15.5ZM106.62,88.8c-3-.5-9.5-1.8-9.5-3s6.33-8.5,9.5-12v15ZM110.12,88.8v-18c8-7,20.5,13.5,0,18Z"/>
</svg>