<svg width="475" height="1156" viewBox="0 0 475 1156" fill="none" xmlns="http://www.w3.org/2000/svg">
<path d="M3 3C101.466 6.33499 72.4315 41.3524 134.289 83.0397C196.146 124.727 279.464 22.4541 341.321 83.0397C403.178 143.625 363.413 207.546 436 227" stroke="#69733D" stroke-width="5"/>
<path d="M39 590C129.28 593.037 102.659 624.928 159.373 662.893C216.087 700.859 292.478 607.717 349.192 662.893C405.907 718.069 369.448 776.283 436 794" stroke="#69733D" stroke-width="5"/>
<path d="M39 526C137.545 489.405 102.236 482.469 157.269 439.985C212.301 397.501 313.933 418.284 365.684 366.494C417.435 314.704 366.305 297.346 436 262" stroke="#69733D" stroke-width="5"/>
<path d="M436 901C282.471 915.872 258.948 1049.93 173.332 1046.73C64.6424 1042.66 47.7853 1153.82 11.0428 1138.86" stroke="#69733D" stroke-width="5"/>
</svg>
